<?xml version="1.0" standalone="no"?>
<!DOCTYPE svg PUBLIC "-//W3C//DTD SVG 20010904//EN"
 "http://www.w3.org/TR/2001/REC-SVG-20010904/DTD/svg10.dtd">
<svg version="1.0" xmlns="http://www.w3.org/2000/svg"
 width="250.000000pt" height="250.000000pt" viewBox="0 0 250.000000 250.000000"
 preserveAspectRatio="xMidYMid meet">
<metadata>
Created by potrace 1.14, written by Peter Selinger 2001-2017
</metadata>
<g transform="translate(0.000000,250.000000) scale(0.100000,-0.100000)"
fill="#000000" stroke="none">
<path d="M1231 2003 c-7 -8 -16 -11 -22 -8 -5 4 -9 2 -9 -2 0 -5 -10 -9 -22
-10 -11 -1 -24 -6 -27 -11 -3 -5 -14 -8 -23 -7 -9 2 -19 -3 -22 -10 -2 -7 -13
-12 -23 -11 -10 2 -21 -1 -24 -6 -3 -5 -16 -10 -27 -11 -12 -1 -22 -5 -22 -9
0 -4 -8 -8 -18 -8 -10 0 -27 -6 -37 -14 -11 -8 -25 -12 -32 -9 -7 3 -13 0 -13
-7 0 -7 -7 -10 -15 -6 -10 3 -15 -1 -16 -12 0 -10 -3 -12 -6 -5 -3 9 -16 7
-46 -9 -23 -11 -43 -20 -44 -19 -2 0 -5 0 -8 0 -3 -1 -9 -3 -15 -4 -5 -1 -15
-3 -21 -4 -5 0 -8 -5 -4 -10 3 -6 -6 -8 -20 -5 -17 3 -27 -1 -31 -11 -3 -8
-10 -13 -14 -10 -4 3 -20 -2 -36 -10 -15 -7 -31 -12 -36 -9 -4 3 -8 0 -8 -5 0
-6 -8 -11 -18 -11 -10 0 -23 -5 -30 -12 -7 -7 -12 -9 -12 -5 0 4 -14 0 -30 -8
-17 -9 -35 -13 -40 -10 -6 3 -10 -1 -10 -9 0 -9 -7 -13 -19 -11 -10 2 -29 -4
-42 -13 -13 -9 -30 -17 -39 -18 -20 -2 -102 -35 -119 -48 -11 -8 -13 -8 -7 2
4 7 -9 3 -28 -8 -20 -11 -38 -20 -41 -19 -3 0 -13 -4 -21 -9 -22 -12 -27 -62
-8 -62 9 0 12 -5 8 -11 -5 -8 1 -10 19 -7 15 3 24 2 22 -3 -3 -4 -1 -10 5 -14
5 -3 10 0 10 7 1 8 5 7 14 -5 11 -14 15 -15 19 -5 3 8 6 6 6 -6 1 -13 6 -16
18 -12 9 4 19 2 23 -3 3 -6 17 -12 30 -14 13 -2 26 -9 28 -15 2 -7 8 -9 14 -6
6 4 5 -2 -1 -15 -8 -14 -8 -21 -1 -21 8 0 8 -6 0 -20 -8 -14 -8 -20 0 -20 8 0
8 -6 0 -20 -8 -14 -8 -20 0 -20 8 0 8 -6 0 -20 -8 -14 -8 -20 0 -20 8 0 8 -6
0 -20 -6 -12 -7 -20 -1 -20 11 0 9 -19 -3 -39 -5 -8 -4 -16 4 -21 9 -6 9 -12
1 -29 -7 -11 -8 -21 -3 -21 5 0 9 -7 9 -15 0 -8 -4 -15 -8 -15 -10 0 -6 -34 6
-43 6 -6 6 -10 -2 -14 -7 -2 -13 -13 -13 -24 0 -10 -5 -19 -11 -19 -5 0 -7 -4
-4 -10 3 -5 2 -10 -3 -10 -5 0 -8 -10 -7 -22 1 -13 -2 -28 -7 -35 -5 -7 -5
-14 2 -18 5 -3 10 -13 10 -21 0 -9 -5 -12 -11 -8 -6 3 -4 -5 5 -18 9 -14 13
-28 9 -31 -3 -4 -2 -7 4 -7 5 0 15 -12 21 -26 9 -19 9 -24 1 -18 -9 5 -10 0
-7 -14 4 -12 2 -22 -4 -22 -5 0 -6 -5 -3 -10 4 -6 1 -18 -7 -27 -11 -14 -11
-16 2 -8 12 6 13 5 3 -6 -7 -7 -13 -21 -13 -31 0 -10 -4 -18 -10 -18 -5 0 -10
-7 -10 -15 0 -8 -5 -15 -11 -15 -5 0 -8 -4 -5 -9 4 -5 -6 -19 -21 -31 -16 -12
-21 -18 -13 -14 10 5 9 1 -4 -14 -10 -12 -23 -19 -27 -16 -5 3 -9 -1 -9 -9 0
-7 -11 -19 -25 -25 -14 -6 -25 -17 -25 -23 0 -6 -7 -9 -15 -5 -14 5 -17 0 -19
-44 0 -8 6 -31 13 -50 8 -19 13 -38 12 -42 0 -5 6 -8 14 -8 8 0 15 -6 15 -12
0 -9 4 -8 10 2 8 12 10 12 10 1 0 -11 3 -11 15 -1 8 7 15 9 15 4 0 -4 7 1 16
12 8 10 12 13 8 5 -5 -10 -3 -12 7 -5 8 4 20 9 28 10 18 3 61 -17 61 -29 0 -5
7 -4 15 3 11 9 15 10 15 1 0 -8 5 -7 15 3 8 8 25 18 37 22 26 8 48 28 48 43 0
6 4 11 9 11 5 0 8 11 6 25 -1 14 1 25 5 25 4 0 11 7 14 16 4 10 2 13 -7 8 -9
-5 -9 -4 0 6 8 9 9 19 2 32 -6 12 -6 18 0 18 12 0 2 32 -13 42 -7 5 -3 8 9 8
13 0 16 3 8 8 -7 4 -13 22 -15 40 -1 18 -6 32 -11 32 -4 0 -7 8 -6 18 3 29 -1
43 -9 38 -5 -3 -9 9 -9 25 0 17 -4 34 -9 37 -12 9 -11 42 2 67 6 11 10 35 9
52 -2 19 1 30 7 27 6 -4 5 3 -1 14 -6 11 -11 29 -11 39 0 25 -22 73 -34 73 -5
0 -3 7 4 15 9 11 9 15 1 15 -7 0 -9 5 -4 13 10 16 13 37 5 37 -4 0 -7 25 -7
55 0 45 3 54 15 50 13 -4 13 -4 0 7 -12 11 -19 64 -10 88 7 19 7 40 1 40 -5 0
-6 10 -4 23 3 15 12 22 28 23 14 1 23 -3 22 -9 -1 -6 4 -11 12 -12 17 0 24
-35 8 -35 -7 0 -4 -5 6 -11 14 -8 16 -14 6 -25 -9 -11 -9 -14 2 -14 8 0 6 -6
-7 -16 -10 -8 -14 -13 -8 -10 7 3 15 -1 18 -10 3 -9 2 -12 -5 -9 -7 5 -8 -7
-4 -35 5 -33 3 -40 -7 -34 -10 6 -10 4 1 -9 7 -9 10 -17 6 -17 -4 0 -1 -8 6
-17 11 -13 11 -15 1 -9 -9 6 -12 1 -10 -16 2 -12 7 -29 12 -37 6 -9 5 -12 -1
-8 -6 4 -13 0 -17 -8 -3 -8 0 -17 6 -21 7 -5 8 -2 3 6 -5 9 -4 11 4 6 9 -6 9
-11 0 -22 -9 -11 -8 -14 2 -14 8 0 6 -6 -7 -16 -10 -8 -14 -13 -8 -10 7 3 15
-1 18 -10 3 -9 2 -12 -5 -9 -12 8 -8 -33 5 -54 6 -9 5 -12 -1 -8 -6 4 -13 0
-17 -8 -3 -8 0 -14 6 -12 6 1 12 -12 13 -29 1 -27 40 -93 51 -86 2 1 14 -7 26
-18 12 -11 28 -18 36 -15 7 2 15 -1 18 -9 3 -7 16 -12 30 -10 15 1 24 -3 24
-12 0 -8 6 -11 15 -8 8 4 21 1 29 -5 8 -7 20 -10 27 -9 8 2 13 -2 12 -9 -2 -7
6 -10 17 -8 11 2 26 -2 33 -9 7 -7 20 -12 30 -10 9 1 17 -1 17 -6 0 -4 7 -11
16 -14 8 -3 12 -2 9 4 -3 6 1 7 9 4 9 -3 13 -11 9 -17 -3 -5 -2 -7 4 -4 5 3
22 0 37 -8 14 -8 24 -10 20 -4 -5 9 34 -9 46 -21 3 -3 16 -7 30 -8 14 -2 29
-8 34 -13 6 -5 15 -4 23 3 10 8 12 8 8 -3 -4 -10 3 -14 27 -13 18 0 38 -3 43
-7 6 -4 21 -6 35 -5 14 1 28 -3 32 -9 5 -6 8 -6 8 2 0 8 9 9 28 4 32 -9 55 -4
46 11 -4 6 2 5 15 -1 11 -7 21 -8 21 -4 0 4 19 9 41 10 23 2 48 8 55 14 7 6
18 8 23 5 5 -4 12 -2 16 4 4 6 10 8 15 5 5 -3 11 -1 15 5 3 5 15 10 26 10 10
0 19 5 19 11 0 5 3 8 8 5 4 -2 23 3 42 11 19 9 40 17 45 18 6 1 19 5 30 9 11
4 24 6 29 6 5 -1 12 3 15 8 3 6 15 12 26 14 11 1 26 10 33 18 8 8 11 9 7 3 -3
-7 -1 -13 4 -13 6 0 11 5 11 11 0 5 5 7 10 4 6 -3 10 -1 10 5 0 7 6 10 13 7 6
-2 18 3 25 12 10 12 12 13 6 1 -7 -12 -5 -13 8 -3 8 7 18 10 21 6 4 -3 7 -1 7
6 0 8 7 11 15 7 9 -3 18 1 21 9 4 8 10 12 15 9 5 -3 12 2 15 10 3 9 9 14 13
12 3 -2 15 6 26 17 11 11 13 16 5 12 -12 -6 -13 -5 -2 6 6 7 12 24 12 37 0 15
4 21 12 16 7 -5 8 -3 3 7 -13 20 -13 49 -1 49 7 0 8 3 1 8 -13 8 -13 22 -1 41
6 9 5 12 -2 7 -7 -4 -10 1 -9 14 1 11 5 20 10 20 5 0 4 7 -3 15 -10 12 -10 15
1 15 12 0 12 2 1 9 -8 4 -14 12 -14 16 0 4 6 12 14 16 8 6 9 9 1 9 -13 0 -12
18 1 39 6 9 5 12 -2 7 -7 -4 -10 1 -9 14 1 11 5 20 10 20 5 0 4 7 -3 15 -10
12 -10 15 1 15 12 0 12 2 1 9 -8 4 -13 11 -13 15 6 42 -31 57 -82 33 -59 -28
-92 -40 -104 -38 -7 1 -13 -4 -13 -10 0 -7 -3 -9 -7 -6 -3 4 -15 -1 -26 -10
-11 -10 -17 -12 -13 -5 4 6 2 12 -3 12 -6 0 -11 -4 -11 -8 0 -12 -71 -33 -83
-25 -6 3 -7 1 -3 -5 7 -11 3 -14 -26 -16 -7 -1 -15 -4 -18 -8 -3 -3 -14 -8
-25 -10 -11 -1 -26 -9 -33 -16 -8 -7 -18 -10 -23 -6 -6 3 -15 1 -22 -4 -21
-17 -67 -21 -67 -6 0 8 -4 14 -10 14 -5 0 -10 6 -10 13 0 18 34 49 43 40 4 -3
7 -2 7 4 0 6 6 11 13 10 34 -1 48 4 41 15 -5 8 -2 9 9 5 9 -3 19 -2 23 4 3 6
12 8 20 5 8 -3 14 -1 14 5 0 6 7 8 15 5 9 -3 18 1 22 9 3 9 10 14 17 13 6 -1
28 6 50 15 21 9 42 14 47 11 5 -3 12 1 15 9 3 8 17 15 32 15 14 0 28 5 30 11
2 6 12 11 22 11 10 0 22 5 25 10 4 6 11 8 16 5 5 -4 9 -2 9 3 0 6 6 10 13 9
34 -1 48 4 41 15 -5 7 0 9 14 6 12 -4 26 0 33 8 7 8 18 13 26 10 7 -3 13 0 13
6 0 6 3 8 7 5 3 -4 12 -2 20 4 7 6 13 9 13 6 0 -3 12 0 27 8 15 8 30 12 35 9
4 -3 8 0 8 5 0 6 9 11 20 11 11 0 20 5 20 11 0 6 7 9 15 5 8 -3 20 1 27 8 8 7
21 12 31 10 9 -1 17 2 17 7 0 6 5 7 10 4 6 -3 10 -2 10 4 0 6 7 8 15 5 8 -4
15 -1 15 5 0 7 8 11 18 9 9 -2 16 2 15 9 -2 7 6 10 18 8 15 -3 19 0 15 10 -2
7 0 15 6 17 7 3 5 10 -5 20 -9 8 -13 18 -10 22 6 6 -15 10 -44 9 -7 -1 -10 4
-6 10 4 6 0 8 -10 4 -8 -3 -21 0 -27 8 -6 7 -20 12 -30 10 -11 -2 -19 1 -17 8
1 7 -4 11 -12 9 -7 -1 -20 3 -29 10 -13 11 -14 11 -7 -2 5 -9 0 -8 -13 4 -12
11 -22 16 -22 12 0 -3 -12 2 -27 11 -21 14 -25 15 -18 3 5 -9 0 -8 -13 4 -12
11 -22 16 -22 12 0 -3 -10 0 -23 9 -13 8 -27 12 -30 8 -4 -3 -7 -2 -7 4 0 5
-7 10 -15 11 -8 1 -22 3 -30 4 -8 1 -15 5 -15 10 0 4 -9 8 -20 8 -11 0 -20 5
-20 10 0 6 -5 10 -11 10 -5 0 -7 -6 -3 -12 4 -7 -4 -3 -17 8 -13 12 -30 19
-36 17 -7 -3 -13 0 -13 6 0 6 -6 8 -14 5 -8 -3 -17 -1 -21 5 -3 6 -15 11 -26
11 -10 0 -19 4 -19 8 0 4 -12 9 -27 10 -16 1 -30 7 -31 12 -2 6 -8 8 -13 4 -5
-3 -9 -1 -9 5 0 6 -6 8 -14 5 -8 -3 -17 -1 -21 5 -3 6 -15 11 -26 11 -10 0
-19 4 -19 9 0 8 -56 25 -72 22 -5 0 -8 4 -8 10 0 5 -4 8 -9 4 -6 -3 -25 3 -44
14 -19 11 -45 21 -58 23 -13 2 -27 7 -30 11 -3 4 -16 9 -27 10 -12 1 -22 5
-22 10 0 5 -7 6 -16 3 -10 -4 -13 -2 -8 6 5 8 2 9 -9 5 -10 -3 -17 -2 -17 3 0
6 -3 9 -7 9 -5 -1 -10 0 -13 1 -18 8 -69 3 -79 -7z"/>
</g>
</svg>
